<?xml version="1.0" encoding="utf-8"?>
<!-- Generator: Adobe Illustrator 25.3.1, SVG Export Plug-In . SVG Version: 6.00 Build 0)  -->
<svg version="1.1" id="Layer_1" xmlns="http://www.w3.org/2000/svg" xmlns:xlink="http://www.w3.org/1999/xlink" x="0px" y="0px"
	 viewBox="0 0 332 321.04" style="enable-background:new 0 0 332 321.04;" xml:space="preserve">
<style type="text/css">
	.st0{fill:#009132;}
	.st1{fill:none;stroke:#000000;stroke-width:6;stroke-linecap:round;stroke-linejoin:round;stroke-dasharray:0.3034,20.227;}
</style>
<path class="st0" d="M166.07,294.22h-0.3c-1.66,0-3-1.34-3-3s1.34-3,3-3H166c1.66,0,3.03,1.34,3.03,3S167.73,294.22,166.07,294.22z
	 M186.21,292.66c-1.45,0-2.73-1.06-2.96-2.54c-0.25-1.64,0.87-3.17,2.5-3.43l0.3-0.05c1.64-0.25,3.17,0.86,3.43,2.5
	s-0.86,3.17-2.5,3.43l-0.3,0.05C186.52,292.65,186.36,292.66,186.21,292.66z M145.63,292.64c-0.15,0-0.31-0.01-0.47-0.04l-0.3-0.05
	c-1.64-0.26-2.76-1.79-2.5-3.43c0.26-1.64,1.79-2.75,3.43-2.5l0.3,0.05c1.64,0.25,2.76,1.79,2.5,3.43
	C148.36,291.58,147.09,292.64,145.63,292.64z M206.16,287.93c-1.26,0-2.44-0.8-2.85-2.07c-0.51-1.58,0.35-3.27,1.92-3.78l0.29-0.09
	c1.58-0.52,3.27,0.34,3.78,1.92c0.51,1.58-0.35,3.27-1.92,3.78l-0.29,0.09C206.78,287.88,206.47,287.93,206.16,287.93z
	 M125.69,287.88c-0.31,0-0.62-0.05-0.92-0.15l-0.29-0.09c-1.58-0.51-2.44-2.2-1.93-3.78c0.51-1.58,2.2-2.45,3.78-1.93l0.29,0.09
	c1.58,0.51,2.44,2.2,1.93,3.78C128.13,287.07,126.95,287.88,125.69,287.88z M225.12,280.12c-1.09,0-2.14-0.6-2.67-1.64
	c-0.75-1.48-0.17-3.28,1.31-4.04l0.27-0.14c1.48-0.75,3.28-0.17,4.04,1.31c0.75,1.48,0.17,3.28-1.31,4.04l-0.27,0.14
	C226.04,280.01,225.58,280.12,225.12,280.12z M106.73,280.04c-0.46,0-0.92-0.11-1.36-0.33l-0.27-0.14
	c-1.48-0.75-2.07-2.56-1.32-4.03c0.75-1.48,2.56-2.06,4.03-1.32l0.27,0.14c1.48,0.75,2.07,2.56,1.32,4.03
	C108.88,279.44,107.82,280.04,106.73,280.04z M242.6,269.43c-0.92,0-1.83-0.42-2.42-1.22c-0.98-1.33-0.69-3.21,0.64-4.19l0.26-0.19
	c1.34-0.98,3.22-0.67,4.19,0.67c0.97,1.34,0.68,3.22-0.67,4.19l-0.23,0.17C243.84,269.24,243.22,269.43,242.6,269.43z M89.24,269.31
	c-0.61,0-1.23-0.19-1.76-0.57l-0.25-0.18c-1.34-0.98-1.63-2.85-0.65-4.19c0.98-1.34,2.85-1.63,4.19-0.65l0.24,0.17
	c1.34,0.97,1.64,2.85,0.66,4.19C91.08,268.89,90.17,269.31,89.24,269.31z M258.21,256.14c-0.77,0-1.54-0.29-2.12-0.88
	c-1.17-1.17-1.17-3.07,0-4.24l0.21-0.21c1.17-1.17,3.07-1.17,4.24,0c1.17,1.17,1.17,3.07,0,4.24l-0.21,0.21
	C259.75,255.85,258.98,256.14,258.21,256.14z M73.65,256c-0.77,0-1.54-0.29-2.12-0.88l-0.21-0.21c-1.17-1.17-1.17-3.07,0-4.24
	c1.17-1.17,3.07-1.17,4.24,0l0.21,0.21c1.17,1.17,1.17,3.07,0,4.24C75.18,255.71,74.41,256,73.65,256z M271.57,240.58
	c-0.62,0-1.24-0.19-1.77-0.58c-1.33-0.98-1.62-2.86-0.64-4.19l0.17-0.23c0.97-1.34,2.85-1.64,4.19-0.67
	c1.34,0.97,1.64,2.85,0.67,4.19l-0.19,0.26C273.4,240.16,272.49,240.58,271.57,240.58z M60.32,240.43c-0.93,0-1.84-0.43-2.43-1.24
	l-0.18-0.25c-0.97-1.34-0.67-3.22,0.67-4.19c1.34-0.97,3.22-0.67,4.19,0.67l0.17,0.24c0.97,1.34,0.68,3.22-0.66,4.19
	C61.54,240.24,60.93,240.43,60.32,240.43z M282.34,223.13c-0.46,0-0.93-0.11-1.37-0.33c-1.47-0.76-2.05-2.57-1.29-4.04l0.13-0.26
	c0.75-1.48,2.56-2.06,4.04-1.31c1.47,0.75,2.06,2.56,1.31,4.04l-0.14,0.28C284.48,222.53,283.43,223.13,282.34,223.13z
	 M49.58,222.97c-1.09,0-2.14-0.6-2.67-1.64l-0.14-0.28c-0.75-1.48-0.15-3.28,1.32-4.03c1.48-0.75,3.28-0.16,4.03,1.32l0.13,0.26
	c0.75,1.48,0.17,3.28-1.31,4.04C50.5,222.86,50.04,222.97,49.58,222.97z M290.25,204.19c-0.31,0-0.62-0.05-0.92-0.15
	c-1.58-0.51-2.44-2.2-1.93-3.78l0.09-0.29c0.51-1.58,2.21-2.44,3.78-1.93c1.58,0.51,2.44,2.2,1.93,3.78l-0.09,0.29
	C292.69,203.38,291.51,204.19,290.25,204.19z M41.71,204.04c-1.26,0-2.44-0.8-2.85-2.07l-0.1-0.3c-0.51-1.58,0.36-3.27,1.94-3.77
	c1.58-0.51,3.27,0.36,3.77,1.94l0.09,0.27c0.51,1.58-0.35,3.27-1.92,3.78C42.33,203.99,42.01,204.04,41.71,204.04z M295.06,184.26
	c-0.15,0-0.31-0.01-0.46-0.04c-1.64-0.25-2.76-1.79-2.5-3.43l0.05-0.3c0.26-1.64,1.8-2.75,3.43-2.5c1.64,0.26,2.76,1.79,2.5,3.43
	l-0.05,0.3C297.79,183.2,296.52,184.26,295.06,184.26z M36.91,184.1c-1.45,0-2.73-1.06-2.96-2.54l-0.05-0.3
	c-0.25-1.64,0.87-3.17,2.5-3.43c1.63-0.24,3.17,0.87,3.42,2.5l0.05,0.3c0.26,1.64-0.86,3.17-2.5,3.43
	C37.22,184.09,37.07,184.1,36.91,184.1z M296.7,163.83c-1.66,0-3-1.34-3-3v-0.58c0-1.66,1.34-3,3-3s3,1.34,3,3v0.58
	C299.7,162.48,298.35,163.83,296.7,163.83z M35.3,163.66c-1.66,0-3-1.34-3-3l0-0.3c0-1.66,1.34-3,3-3s3,1.34,3,3l0,0.3
	C38.3,162.32,36.96,163.66,35.3,163.66z M36.88,143.22c-0.15,0-0.31-0.01-0.47-0.04c-1.64-0.26-2.76-1.79-2.5-3.43l0.05-0.32
	c0.26-1.64,1.81-2.75,3.44-2.48c1.64,0.26,2.75,1.8,2.48,3.44l-0.04,0.28C39.6,142.16,38.33,143.22,36.88,143.22z M295.11,143.11
	c-1.44,0-2.71-1.04-2.96-2.51l-0.05-0.31c-0.26-1.64,0.86-3.18,2.5-3.44c1.63-0.26,3.17,0.85,3.43,2.49l0,0.02l0.04,0.25
	c0.27,1.63-0.83,3.18-2.47,3.45C295.44,143.09,295.27,143.11,295.11,143.11z M41.62,123.27c-0.31,0-0.62-0.05-0.92-0.15
	c-1.58-0.51-2.44-2.2-1.93-3.78l0.1-0.3c0.52-1.57,2.21-2.43,3.79-1.92c1.57,0.52,2.43,2.21,1.92,3.79l-0.09,0.28
	C44.06,122.47,42.89,123.27,41.62,123.27z M290.35,123.17c-1.25,0-2.42-0.79-2.84-2.05l-0.1-0.31c-0.51-1.58,0.35-3.27,1.93-3.78
	c1.57-0.51,3.27,0.35,3.78,1.93l0.09,0.26c0.53,1.57-0.32,3.27-1.89,3.8C290.98,123.12,290.66,123.17,290.35,123.17z M49.45,104.31
	c-0.46,0-0.92-0.1-1.36-0.33c-1.48-0.75-2.07-2.56-1.32-4.03l0.15-0.29c0.76-1.47,2.57-2.05,4.04-1.28
	c1.47,0.76,2.04,2.57,1.28,4.04l-0.13,0.25C51.6,103.71,50.55,104.31,49.45,104.31z M282.5,104.22c-1.09,0-2.14-0.59-2.67-1.63
	l-0.14-0.27c-0.75-1.48-0.17-3.28,1.31-4.04c1.47-0.75,3.28-0.17,4.04,1.31l0.13,0.26c0.76,1.47,0.18,3.28-1.3,4.04
	C283.43,104.12,282.96,104.22,282.5,104.22z M60.16,86.82c-0.61,0-1.23-0.19-1.76-0.57c-1.34-0.97-1.64-2.85-0.66-4.19l0.18-0.25
	c0.98-1.34,2.86-1.63,4.19-0.65c1.34,0.98,1.63,2.85,0.65,4.19l-0.17,0.24C62.01,86.39,61.09,86.82,60.16,86.82z M271.79,86.75
	c-0.92,0-1.84-0.43-2.42-1.23l-0.18-0.24c-0.98-1.34-0.68-3.21,0.65-4.19c1.34-0.98,3.21-0.68,4.19,0.65l0.18,0.24
	c0.98,1.34,0.68,3.21-0.65,4.19C273.02,86.56,272.4,86.75,271.79,86.75z M73.47,71.22c-0.76,0-1.53-0.29-2.11-0.87
	c-1.18-1.17-1.18-3.07-0.01-4.24l0.24-0.24c1.18-1.16,3.08-1.15,4.24,0.03c1.16,1.18,1.15,3.08-0.03,4.24l-0.19,0.19
	C75.01,70.92,74.24,71.22,73.47,71.22z M258.47,71.16c-0.76,0-1.53-0.29-2.11-0.87l-0.22-0.22c-1.17-1.17-1.17-3.07,0-4.24
	c1.17-1.17,3.07-1.17,4.24,0l0.21,0.21c1.18,1.17,1.18,3.07,0.01,4.24C260.01,70.86,259.24,71.16,258.47,71.16z M89.04,57.88
	c-0.92,0-1.84-0.43-2.42-1.23c-0.98-1.34-0.69-3.21,0.65-4.19l0.25-0.19c1.34-0.97,3.22-0.67,4.19,0.67
	c0.97,1.34,0.67,3.22-0.67,4.19l-0.24,0.17C90.28,57.69,89.66,57.88,89.04,57.88z M242.89,57.83c-0.61,0-1.23-0.19-1.76-0.57
	l-0.25-0.18c-1.34-0.97-1.64-2.85-0.67-4.19c0.97-1.34,2.85-1.64,4.19-0.66l0.25,0.18c1.34,0.97,1.64,2.85,0.67,4.19
	C244.73,57.4,243.82,57.83,242.89,57.83z M106.49,47.13c-1.09,0-2.14-0.6-2.67-1.64c-0.75-1.48-0.17-3.28,1.31-4.04l0.27-0.14
	c1.48-0.75,3.28-0.16,4.03,1.31c0.75,1.48,0.16,3.28-1.31,4.03l-0.26,0.13C107.42,47.02,106.95,47.13,106.49,47.13z M225.41,47.08
	c-0.46,0-0.92-0.11-1.36-0.33l-0.26-0.13c-1.48-0.75-2.07-2.55-1.32-4.03c0.75-1.48,2.55-2.07,4.03-1.32l0.28,0.14
	c1.48,0.75,2.06,2.56,1.31,4.04C227.56,46.48,226.51,47.08,225.41,47.08z M125.42,39.25c-1.26,0-2.44-0.81-2.85-2.07
	c-0.51-1.58,0.35-3.27,1.93-3.78l0.29-0.09c1.58-0.51,3.27,0.35,3.78,1.93c0.51,1.58-0.35,3.27-1.93,3.78l-0.29,0.09
	C126.04,39.2,125.73,39.25,125.42,39.25z M206.47,39.21c-0.31,0-0.63-0.05-0.94-0.15l-0.28-0.09c-1.58-0.51-2.44-2.2-1.93-3.78
	s2.21-2.44,3.78-1.93l0.3,0.1c1.57,0.52,2.43,2.21,1.92,3.79C208.91,38.41,207.73,39.21,206.47,39.21z M145.35,34.45
	c-1.45,0-2.73-1.06-2.96-2.54c-0.26-1.64,0.86-3.17,2.5-3.43l0.3-0.05c1.63-0.25,3.17,0.86,3.43,2.5c0.26,1.64-0.86,3.17-2.5,3.43
	l-0.3,0.05C145.66,34.44,145.5,34.45,145.35,34.45z M186.54,34.43c-0.15,0-0.31-0.01-0.46-0.04l-0.3-0.05
	c-1.64-0.26-2.76-1.79-2.5-3.43c0.26-1.64,1.8-2.75,3.43-2.5l0.3,0.05c1.64,0.25,2.76,1.79,2.5,3.42
	C189.27,33.37,187.99,34.43,186.54,34.43z M165.79,32.83c-1.66,0-3-1.34-3-3s1.34-3,3-3l0.19,0c0.01,0,0.11,0,0.12,0
	c1.66,0,3,1.34,3,3s-1.34,3-3,3L165.79,32.83z"/>
</svg>
