<?xml version="1.0" encoding="utf-8"?>
<!-- Generator: Adobe Illustrator 25.3.1, SVG Export Plug-In . SVG Version: 6.00 Build 0)  -->
<svg version="1.1" id="Layer_1" xmlns="http://www.w3.org/2000/svg" xmlns:xlink="http://www.w3.org/1999/xlink" x="0px" y="0px"
	 viewBox="0 0 332 321.04" style="enable-background:new 0 0 332 321.04;" xml:space="preserve">
<style type="text/css">
	.st0{fill:#CCCCCC;}
</style>
<g>
	<path class="st0" d="M121.94,47.87c0.56,0.21,1.18,0.33,1.84,0.35s1.3-0.08,1.9-0.31c0.4-0.15,0.68-0.32,0.83-0.5
		s0.18-0.39,0.1-0.62c-0.1-0.27-0.28-0.45-0.56-0.53s-0.69-0.11-1.25-0.06c-0.48,0.03-0.97,0.06-1.48,0.08s-0.99-0.02-1.45-0.12
		s-0.88-0.29-1.25-0.57s-0.66-0.71-0.87-1.29c-0.19-0.51-0.25-0.99-0.18-1.43s0.23-0.85,0.49-1.21s0.6-0.69,1.02-0.97
		c0.42-0.28,0.89-0.51,1.4-0.7c0.36-0.13,0.71-0.23,1.05-0.29c0.34-0.07,0.68-0.11,1.04-0.12c0.35-0.01,0.71,0.01,1.07,0.05
		s0.75,0.12,1.15,0.22l-0.3,2.32c-0.5-0.16-1.02-0.24-1.55-0.24s-1.07,0.08-1.59,0.26c-0.17,0.05-0.33,0.12-0.48,0.19
		c-0.14,0.07-0.26,0.16-0.36,0.25s-0.16,0.19-0.2,0.3c-0.04,0.11-0.04,0.22,0.01,0.34c0.04,0.12,0.1,0.22,0.17,0.3
		c0.07,0.08,0.17,0.14,0.31,0.19c0.14,0.04,0.32,0.07,0.55,0.08c0.23,0.01,0.53,0,0.89-0.03c0.57-0.04,1.12-0.07,1.64-0.07
		c0.52-0.01,0.99,0.05,1.42,0.17s0.81,0.32,1.13,0.61c0.32,0.29,0.59,0.71,0.78,1.25c0.18,0.51,0.24,0.98,0.18,1.43
		c-0.06,0.45-0.22,0.85-0.48,1.22c-0.26,0.37-0.61,0.7-1.05,1s-0.94,0.55-1.51,0.75c-0.82,0.29-1.62,0.45-2.41,0.46
		s-1.57-0.09-2.33-0.31L121.94,47.87z"/>
	<path class="st0" d="M137.34,39.88l0.58,2.16L133,43.37l0.51,1.88l5.3-1.43l0.58,2.15l-7.91,2.13l-2.7-10l7.78-2.1l0.58,2.16
		l-5.17,1.4l0.45,1.66L137.34,39.88z"/>
	<path class="st0" d="M140.02,45.78l1.63-10.82l3.35-0.6l5.28,9.58l-2.66,0.48l-1.48-2.68l-3.14,1.5l-0.32,2.06L140.02,45.78z
		 M143.39,40.67l1.7-0.82l-1.23-2.25L143.39,40.67z"/>
	<path class="st0" d="M150.29,33.53l5.79-0.5c0.45-0.04,0.88-0.02,1.28,0.07s0.76,0.24,1.06,0.46c0.31,0.22,0.56,0.52,0.76,0.89
		s0.32,0.82,0.37,1.35c0.06,0.69-0.01,1.26-0.2,1.71c-0.2,0.45-0.51,0.82-0.95,1.12l2.37,4.39l-2.81,0.25l-1.94-3.64l-2.41,0.76
		l0.28,3.24l-2.69,0.23L150.29,33.53z M156.87,36.1c-0.02-0.24-0.12-0.44-0.29-0.61s-0.4-0.23-0.66-0.21l-2.73,0.24l0.22,2.5
		l2.42-0.67c0.43-0.12,0.72-0.29,0.87-0.51S156.9,36.38,156.87,36.1z"/>
	<path class="st0" d="M161.48,37.75c0.01-0.8,0.17-1.53,0.47-2.19s0.71-1.23,1.22-1.7s1.12-0.84,1.82-1.1
		c0.7-0.26,1.44-0.38,2.24-0.37c1.07,0.02,2,0.25,2.77,0.7s1.46,1.11,2.07,1.98l-1.8,1.47c-0.31-0.58-0.71-1.04-1.19-1.38
		c-0.48-0.35-1.09-0.52-1.82-0.54c-0.45-0.01-0.86,0.07-1.24,0.23s-0.7,0.38-0.97,0.67c-0.27,0.29-0.48,0.62-0.63,1.02
		c-0.15,0.39-0.23,0.81-0.24,1.26c-0.01,0.45,0.06,0.87,0.19,1.26c0.14,0.39,0.34,0.74,0.6,1.03c0.26,0.29,0.58,0.53,0.96,0.7
		c0.37,0.17,0.79,0.26,1.25,0.27c0.37,0.01,0.71-0.03,1.01-0.11c0.3-0.08,0.58-0.2,0.83-0.36s0.48-0.36,0.69-0.59
		s0.4-0.49,0.58-0.78l1.72,1.58c-0.6,0.81-1.3,1.44-2.09,1.88c-0.79,0.44-1.74,0.65-2.85,0.63c-0.8-0.01-1.54-0.16-2.23-0.44
		s-1.28-0.66-1.78-1.15s-0.89-1.07-1.17-1.74C161.6,39.28,161.47,38.55,161.48,37.75z"/>
	<path class="st0" d="M179.51,43.77l0.47-4.83l-3.97,0.68l-0.37,3.77l-2.69-0.26l1.01-10.31l2.69,0.26l-0.42,4.33l3.97-0.7
		l0.32-3.26l2.69,0.26l-1.01,10.31L179.51,43.77z"/>
	<path class="st0" d="M196.33,40.28l-0.47,2.19l-4.99-1.08l-0.88,4.08l-2.64-0.57l2.19-10.13l7.88,1.7l-0.47,2.19l-5.24-1.13
		l-0.36,1.68L196.33,40.28z"/>
	<path class="st0" d="M197.42,41.74c0.24-0.75,0.59-1.4,1.07-1.95c0.48-0.55,1.03-0.98,1.66-1.29s1.31-0.48,2.06-0.53
		c0.74-0.05,1.5,0.05,2.28,0.29c0.79,0.25,1.47,0.6,2.05,1.07c0.58,0.46,1.04,1,1.38,1.61c0.34,0.61,0.54,1.28,0.61,2
		s-0.02,1.46-0.25,2.21c-0.24,0.76-0.59,1.42-1.06,1.97c-0.47,0.55-1.02,0.98-1.65,1.29c-0.63,0.31-1.31,0.49-2.06,0.54
		c-0.74,0.05-1.51-0.05-2.29-0.3c-0.78-0.24-1.46-0.6-2.04-1.06c-0.58-0.46-1.04-1-1.38-1.62c-0.34-0.62-0.55-1.29-0.62-2.01
		C197.1,43.24,197.18,42.5,197.42,41.74z M200,42.55c-0.14,0.46-0.21,0.89-0.19,1.31c0.02,0.42,0.11,0.8,0.27,1.16
		c0.16,0.35,0.4,0.66,0.7,0.92s0.67,0.46,1.1,0.6c0.43,0.14,0.84,0.18,1.24,0.14c0.4-0.04,0.77-0.16,1.1-0.36
		c0.33-0.19,0.63-0.46,0.88-0.79s0.45-0.73,0.6-1.18c0.14-0.44,0.2-0.87,0.18-1.28s-0.11-0.8-0.27-1.15
		c-0.16-0.35-0.4-0.66-0.7-0.92s-0.67-0.46-1.1-0.6c-0.43-0.13-0.84-0.18-1.24-0.14c-0.4,0.04-0.77,0.16-1.1,0.36
		s-0.63,0.46-0.88,0.79C200.33,41.73,200.14,42.11,200,42.55z"/>
	<path class="st0" d="M211.97,41.08l5.35,2.28c0.41,0.18,0.78,0.4,1.09,0.66c0.31,0.27,0.56,0.57,0.72,0.91
		c0.17,0.34,0.25,0.72,0.25,1.14s-0.11,0.88-0.31,1.36c-0.27,0.64-0.6,1.11-0.98,1.41c-0.38,0.3-0.84,0.48-1.36,0.54l0.02,4.98
		l-2.59-1.11v-4.12l-2.49-0.47l-1.27,2.99l-2.49-1.06L211.97,41.08z M216.56,46.45c0.09-0.22,0.1-0.45,0.03-0.67
		c-0.08-0.23-0.24-0.39-0.49-0.5l-2.52-1.08l-0.98,2.31l2.45,0.55c0.44,0.1,0.77,0.09,1.01-0.04
		C216.28,46.89,216.46,46.7,216.56,46.45z"/>
	<path class="st0" d="M232.42,54.37c-0.23,0.41-0.52,0.73-0.86,0.98s-0.74,0.4-1.2,0.45c0.14,0.18,0.26,0.38,0.35,0.6
		c0.09,0.21,0.15,0.44,0.17,0.69c0.02,0.24,0,0.5-0.06,0.78s-0.18,0.56-0.35,0.85c-0.26,0.45-0.55,0.79-0.87,1.03
		c-0.32,0.24-0.65,0.39-1.01,0.45c-0.35,0.07-0.71,0.05-1.08-0.04s-0.73-0.24-1.09-0.45l-5.65-3.27l5.19-8.97l5.22,3.02
		c0.36,0.21,0.67,0.44,0.94,0.71c0.27,0.26,0.47,0.55,0.6,0.88c0.13,0.32,0.17,0.68,0.13,1.05
		C232.83,53.51,232.68,53.92,232.42,54.37z M228.29,56.99c0.09-0.15,0.13-0.3,0.13-0.46s-0.03-0.3-0.09-0.45
		c-0.06-0.14-0.15-0.27-0.26-0.4c-0.11-0.12-0.23-0.24-0.36-0.34l-2.81-0.74l-0.75,1.29l2.43,1.41c0.33,0.19,0.65,0.28,0.95,0.25
		C227.83,57.53,228.09,57.34,228.29,56.99z M228.85,53.51c0.29,0.09,0.54,0.09,0.76,0.02c0.21-0.08,0.37-0.21,0.48-0.38
		c0.11-0.2,0.12-0.39,0.02-0.58c-0.1-0.19-0.25-0.34-0.44-0.45l-2.49-1.44l-1.16,2L228.85,53.51z"/>
	<path class="st0" d="M240.19,61.19l-1.28,1.83l-4.18-2.93l-1.12,1.6l4.49,3.15l-1.28,1.82l-6.71-4.7l5.95-8.48l6.6,4.62l-1.28,1.83
		l-4.39-3.07l-0.99,1.4L240.19,61.19z"/>
	<path class="st0" d="M247.28,64.72l-5.19,6.25l-2.08-1.73l5.19-6.25l-2.53-2.1l1.43-1.72l7.14,5.93l-1.43,1.72L247.28,64.72z"/>
	<path class="st0" d="M255.2,72.04l-5.71,5.78l-1.92-1.9l5.71-5.78l-2.34-2.31l1.57-1.59l6.61,6.52l-1.57,1.59L255.2,72.04z"/>
	<path class="st0" d="M262.5,82.68l-1.69,1.46l-3.33-3.87L256,81.54l3.58,4.16l-1.69,1.45l-5.34-6.21l7.86-6.76l5.26,6.11l-1.7,1.46
		l-3.49-4.06l-1.3,1.12L262.5,82.68z"/>
	<path class="st0" d="M267.12,82.12l3.4,4.71c0.26,0.37,0.46,0.74,0.59,1.13s0.18,0.77,0.15,1.15c-0.03,0.38-0.16,0.75-0.38,1.11
		s-0.54,0.7-0.97,1.01c-0.56,0.41-1.09,0.64-1.57,0.7c-0.49,0.06-0.97-0.02-1.45-0.24l-2.55,4.28l-1.65-2.29l2.13-3.53l-1.89-1.68
		l-2.63,1.9l-1.58-2.19L267.12,82.12z M268.28,89.09c0.2-0.14,0.32-0.33,0.37-0.56c0.05-0.23,0-0.46-0.16-0.68l-1.61-2.22
		l-2.03,1.47l1.81,1.74c0.32,0.31,0.62,0.47,0.88,0.49C267.81,89.33,268.06,89.25,268.28,89.09z"/>
	<path class="st0" d="M270.06,98.88c-0.12,0.59-0.13,1.21-0.04,1.87s0.29,1.26,0.62,1.83c0.22,0.37,0.43,0.62,0.63,0.73
		s0.41,0.11,0.62,0c0.25-0.14,0.39-0.35,0.43-0.64c0.04-0.29-0.01-0.7-0.14-1.24c-0.11-0.46-0.22-0.95-0.32-1.44
		c-0.1-0.5-0.14-0.98-0.12-1.45s0.15-0.91,0.36-1.33s0.59-0.77,1.13-1.07c0.48-0.27,0.94-0.4,1.39-0.41s0.87,0.09,1.28,0.29
		s0.78,0.48,1.12,0.85c0.34,0.37,0.65,0.79,0.92,1.27c0.19,0.33,0.34,0.66,0.46,0.99s0.22,0.66,0.28,1c0.07,0.34,0.11,0.7,0.12,1.06
		s0,0.75-0.03,1.17l-2.34,0.08c0.08-0.52,0.07-1.04-0.01-1.57c-0.09-0.53-0.26-1.04-0.51-1.53c-0.08-0.16-0.17-0.31-0.27-0.44
		c-0.1-0.13-0.2-0.23-0.31-0.31c-0.11-0.08-0.22-0.13-0.33-0.15c-0.11-0.02-0.22,0-0.34,0.06s-0.2,0.14-0.27,0.22
		c-0.07,0.08-0.11,0.19-0.13,0.33c-0.02,0.14-0.02,0.32,0.01,0.55s0.09,0.52,0.18,0.88c0.13,0.56,0.25,1.1,0.34,1.61
		s0.11,0.99,0.07,1.43c-0.05,0.44-0.19,0.85-0.42,1.21s-0.6,0.69-1.11,0.98c-0.47,0.26-0.93,0.4-1.38,0.41s-0.88-0.08-1.29-0.28
		s-0.79-0.49-1.16-0.87c-0.36-0.38-0.69-0.84-0.99-1.37c-0.42-0.76-0.7-1.53-0.84-2.31c-0.14-0.78-0.16-1.56-0.07-2.35L270.06,98.88
		z"/>
	<path class="st0" d="M273.05,112.63c-0.26-0.58-0.42-1.17-0.46-1.77c-0.05-0.59,0.01-1.16,0.17-1.69c0.16-0.54,0.42-1.02,0.79-1.45
		s0.85-0.78,1.44-1.04l5.86-2.62l1.11,2.47l-5.74,2.57c-0.25,0.11-0.47,0.26-0.66,0.44s-0.33,0.38-0.43,0.6s-0.15,0.47-0.15,0.74
		s0.06,0.54,0.19,0.81c0.12,0.28,0.29,0.5,0.48,0.68c0.2,0.18,0.42,0.31,0.65,0.39c0.23,0.08,0.48,0.11,0.74,0.09
		c0.26-0.02,0.51-0.09,0.77-0.2l5.74-2.57l1.11,2.47l-5.86,2.63c-0.58,0.26-1.16,0.39-1.74,0.37s-1.11-0.14-1.61-0.37
		c-0.5-0.24-0.96-0.57-1.38-1.01C273.64,113.72,273.31,113.21,273.05,112.63z"/>
	<path class="st0" d="M285.89,124.33c-0.44,0.15-0.87,0.21-1.29,0.17s-0.82-0.19-1.2-0.45c-0.01,0.23-0.05,0.46-0.12,0.68
		s-0.18,0.43-0.32,0.63s-0.33,0.38-0.56,0.55c-0.23,0.16-0.5,0.3-0.82,0.41c-0.49,0.17-0.94,0.24-1.33,0.21
		c-0.4-0.03-0.75-0.14-1.06-0.32s-0.57-0.43-0.79-0.74s-0.39-0.66-0.52-1.06l-2.1-6.18l9.81-3.34l1.95,5.71
		c0.13,0.39,0.22,0.78,0.25,1.15s-0.01,0.72-0.13,1.05s-0.32,0.62-0.59,0.88C286.77,123.95,286.38,124.16,285.89,124.33z
		 M281.06,123.59c0.16-0.06,0.3-0.14,0.4-0.26s0.18-0.25,0.22-0.4s0.07-0.3,0.07-0.47c0-0.16-0.02-0.33-0.04-0.49l-1.63-2.41
		l-1.42,0.48l0.91,2.66c0.12,0.36,0.31,0.63,0.55,0.81C280.36,123.69,280.68,123.72,281.06,123.59z M283.77,121.33
		c0.16,0.26,0.35,0.43,0.56,0.51s0.42,0.09,0.61,0.02c0.21-0.07,0.34-0.21,0.39-0.42c0.05-0.21,0.04-0.42-0.04-0.63l-0.93-2.72
		l-2.19,0.75L283.77,121.33z"/>
	<path class="st0" d="M289.69,127.76l-5.54,2.64l6.12-0.13l0.59,2.57l-5.67,2.53l6.25-0.02l0.61,2.62l-10.69-0.22l-0.61-2.62
		l6.08-2.73l-6.66,0.25l-0.6-2.61l9.5-4.89L289.69,127.76z"/>
	<path class="st0" d="M281.79,139.74l10.73,2.12l0.45,3.38l-9.81,4.84l-0.36-2.68l2.74-1.36l-1.36-3.2l-2.05-0.41L281.79,139.74z
		 M286.74,143.34l0.74,1.74l2.3-1.13L286.74,143.34z"/>
	<path class="st0" d="M293.59,151.78l-3.31,2.2l3.52,1.85l0.15,2.97l-6.21-3.35l-4.32,0.22l-0.14-2.7l4.36-0.23l5.8-3.95
		L293.59,151.78z"/>
	<path class="st0" d="M285.43,179.63c-0.47,0.38-0.88,0.85-1.23,1.41s-0.58,1.16-0.69,1.8c-0.07,0.43-0.07,0.75,0.02,0.97
		c0.08,0.22,0.24,0.35,0.48,0.39c0.28,0.05,0.53-0.02,0.74-0.21s0.44-0.54,0.68-1.04c0.21-0.43,0.44-0.87,0.68-1.32
		c0.24-0.45,0.52-0.85,0.84-1.19s0.7-0.61,1.13-0.79s0.95-0.21,1.55-0.1c0.54,0.1,0.98,0.29,1.33,0.57s0.61,0.63,0.8,1.04
		c0.18,0.41,0.29,0.87,0.32,1.37s-0.01,1.02-0.11,1.56c-0.07,0.38-0.16,0.73-0.28,1.05c-0.11,0.33-0.25,0.64-0.42,0.95
		s-0.36,0.61-0.58,0.9s-0.48,0.58-0.77,0.88l-1.85-1.43c0.39-0.35,0.72-0.76,0.99-1.22s0.47-0.96,0.58-1.5
		c0.04-0.18,0.07-0.35,0.08-0.51c0.01-0.16,0-0.31-0.04-0.44c-0.03-0.13-0.08-0.24-0.16-0.33c-0.07-0.09-0.17-0.14-0.3-0.17
		c-0.13-0.02-0.24-0.03-0.35-0.01s-0.21,0.08-0.32,0.17c-0.11,0.09-0.22,0.24-0.34,0.43c-0.12,0.19-0.27,0.46-0.42,0.79
		c-0.25,0.52-0.51,1-0.77,1.45c-0.26,0.45-0.54,0.83-0.86,1.14c-0.32,0.31-0.68,0.53-1.1,0.67c-0.41,0.13-0.91,0.15-1.48,0.04
		c-0.53-0.1-0.97-0.29-1.32-0.56s-0.62-0.62-0.81-1.04s-0.3-0.88-0.33-1.41s0-1.09,0.12-1.68c0.16-0.85,0.44-1.62,0.83-2.31
		c0.39-0.69,0.87-1.31,1.44-1.85L285.43,179.63z"/>
	<path class="st0" d="M284.53,196.96l-2.16-0.59l1.35-4.93l-1.88-0.51l-1.45,5.29l-2.14-0.59l2.16-7.9l9.99,2.73l-2.12,7.78
		l-2.16-0.59l1.41-5.17l-1.66-0.45L284.53,196.96z"/>
	<path class="st0" d="M278.09,196.29l8.51,6.88l-1.18,3.2l-10.94-0.29l0.94-2.54l3.06,0.08l0.29-3.47l-1.62-1.32L278.09,196.29z
		 M280.79,201.77l-0.15,1.88l2.56,0.07L280.79,201.77z"/>
	<path class="st0" d="M283.45,211.35l-2.5,5.25c-0.19,0.41-0.43,0.76-0.71,1.07c-0.28,0.3-0.59,0.53-0.94,0.68s-0.73,0.22-1.15,0.2
		c-0.42-0.02-0.87-0.14-1.35-0.37c-0.63-0.3-1.08-0.64-1.37-1.04s-0.45-0.86-0.49-1.38l-4.98-0.18l1.21-2.55l4.12,0.17l0.57-2.46
		l-2.93-1.4l1.16-2.44L283.45,211.35z M277.9,215.72c0.22,0.1,0.44,0.12,0.67,0.05c0.23-0.07,0.4-0.22,0.52-0.47l1.18-2.48
		l-2.27-1.08l-0.65,2.43c-0.12,0.43-0.12,0.77,0,1.01S277.65,215.6,277.9,215.72z"/>
	<path class="st0" d="M274.11,218.8c0.69,0.41,1.24,0.91,1.67,1.5s0.71,1.23,0.87,1.91c0.15,0.68,0.17,1.39,0.05,2.12
		c-0.12,0.73-0.39,1.44-0.8,2.13c-0.55,0.92-1.21,1.61-1.99,2.05c-0.77,0.45-1.69,0.72-2.75,0.82l-0.37-2.29
		c0.66,0.02,1.25-0.1,1.79-0.35s1-0.68,1.37-1.31c0.23-0.39,0.37-0.78,0.42-1.19c0.05-0.4,0.02-0.79-0.1-1.17s-0.3-0.73-0.57-1.06
		s-0.59-0.61-0.98-0.84s-0.79-0.38-1.19-0.46c-0.41-0.08-0.81-0.07-1.19,0.01c-0.39,0.08-0.75,0.24-1.08,0.48
		c-0.33,0.24-0.62,0.56-0.85,0.95c-0.19,0.32-0.33,0.63-0.4,0.93c-0.08,0.3-0.11,0.6-0.09,0.9c0.01,0.3,0.07,0.59,0.17,0.89
		s0.23,0.59,0.39,0.89l-2.22,0.71c-0.41-0.93-0.6-1.84-0.59-2.75c0.01-0.9,0.3-1.83,0.87-2.79c0.41-0.69,0.91-1.26,1.49-1.71
		c0.59-0.46,1.21-0.78,1.89-0.97s1.37-0.24,2.09-0.15S273.43,218.4,274.11,218.8z"/>
	<path class="st0" d="M259.8,231.33l3.92,2.86l1.43-3.77l-3.05-2.23l1.59-2.18l8.37,6.11l-1.59,2.18l-3.52-2.57l-1.42,3.78
		l2.65,1.93l-1.59,2.18l-8.37-6.11L259.8,231.33z"/>
	<path class="st0" d="M254.28,247.58l-1.64-1.52l3.47-3.75l-3.07-2.83l1.83-1.99l7.61,7.03l-5.47,5.92l-1.64-1.52l3.63-3.93
		l-1.26-1.16L254.28,247.58z"/>
	<path class="st0" d="M252.45,247.78c0.53,0.59,0.91,1.22,1.14,1.91s0.32,1.38,0.27,2.08s-0.25,1.38-0.58,2.04
		c-0.33,0.66-0.8,1.27-1.41,1.82c-0.61,0.55-1.26,0.96-1.96,1.23c-0.69,0.26-1.39,0.39-2.09,0.37c-0.7-0.02-1.38-0.18-2.03-0.49
		s-1.25-0.75-1.78-1.34s-0.92-1.23-1.16-1.91c-0.24-0.68-0.33-1.38-0.28-2.08s0.24-1.38,0.58-2.05s0.81-1.27,1.42-1.82
		c0.6-0.55,1.25-0.95,1.95-1.22s1.39-0.39,2.09-0.37s1.38,0.18,2.05,0.48C251.32,246.75,251.92,247.19,252.45,247.78z M250.45,249.6
		c-0.32-0.35-0.67-0.63-1.04-0.83s-0.75-0.31-1.13-0.35c-0.38-0.04-0.77,0.01-1.15,0.13s-0.74,0.34-1.07,0.65
		c-0.33,0.3-0.58,0.64-0.75,1c-0.17,0.37-0.25,0.74-0.25,1.13s0.08,0.77,0.24,1.16s0.4,0.76,0.72,1.11c0.31,0.34,0.65,0.61,1.01,0.8
		c0.37,0.19,0.74,0.31,1.13,0.35s0.77-0.01,1.15-0.13c0.38-0.13,0.74-0.34,1.07-0.65c0.33-0.3,0.58-0.64,0.75-1
		c0.17-0.37,0.25-0.74,0.25-1.13s-0.08-0.77-0.23-1.16C250.99,250.3,250.75,249.94,250.45,249.6z"/>
	<path class="st0" d="M245.65,260.66l-4.67,3.46c-0.36,0.27-0.74,0.47-1.13,0.61c-0.39,0.14-0.77,0.19-1.15,0.16
		s-0.75-0.15-1.11-0.37c-0.37-0.21-0.71-0.54-1.02-0.96c-0.41-0.56-0.65-1.08-0.72-1.56s0.01-0.97,0.22-1.45l-4.31-2.5l2.27-1.68
		l3.56,2.09l1.66-1.91l-1.93-2.61l2.17-1.61L245.65,260.66z M238.69,261.91c0.14,0.2,0.33,0.32,0.57,0.36s0.46-0.01,0.68-0.17
		l2.2-1.63l-1.49-2.02l-1.71,1.84c-0.31,0.33-0.47,0.62-0.48,0.89C238.45,261.44,238.53,261.69,238.69,261.91z"/>
	<path class="st0" d="M223.86,271.57c-0.23-0.41-0.37-0.82-0.41-1.24c-0.04-0.42,0.03-0.84,0.22-1.27c-0.23,0.03-0.46,0.03-0.69,0
		s-0.46-0.09-0.68-0.2c-0.22-0.1-0.44-0.25-0.64-0.44s-0.39-0.44-0.56-0.73c-0.26-0.45-0.41-0.88-0.45-1.27s0-0.76,0.12-1.1
		s0.32-0.64,0.58-0.91c0.27-0.27,0.58-0.51,0.94-0.71l5.68-3.22l5.12,9.01l-5.25,2.98c-0.36,0.21-0.72,0.36-1.08,0.46
		s-0.71,0.12-1.06,0.07c-0.34-0.05-0.67-0.19-0.98-0.42C224.4,272.37,224.12,272.03,223.86,271.57z M223.69,266.69
		c0.09,0.15,0.2,0.26,0.33,0.34s0.28,0.13,0.43,0.14c0.15,0.02,0.31,0.01,0.47-0.02s0.32-0.08,0.48-0.14l2.06-2.05l-0.74-1.3
		l-2.44,1.39c-0.33,0.19-0.56,0.42-0.7,0.7C223.46,266.02,223.49,266.34,223.69,266.69z M226.41,268.93
		c-0.22,0.21-0.35,0.42-0.4,0.64c-0.04,0.22-0.01,0.43,0.09,0.61c0.11,0.2,0.27,0.3,0.49,0.31s0.42-0.04,0.62-0.15l2.5-1.42
		l-1.14-2.01L226.41,268.93z"/>
	<path class="st0" d="M214.05,274.84l-0.93-2.03l4.65-2.13l-0.81-1.77l-4.99,2.29l-0.93-2.02l7.45-3.41l4.32,9.42l-7.33,3.36
		l-0.93-2.03l4.87-2.23l-0.71-1.56L214.05,274.84z"/>
	<path class="st0" d="M207.4,279.18l-2.76-7.64l2.54-0.92l2.76,7.64l3.09-1.12l0.76,2.1l-8.73,3.15l-0.76-2.1L207.4,279.18z"/>
	<path class="st0" d="M197.07,282.28l-2.09-7.85l2.61-0.7l2.09,7.85l3.18-0.84l0.57,2.16l-8.97,2.39l-0.58-2.16L197.07,282.28z"/>
	<path class="st0" d="M184.18,283.17l-0.39-2.2l5.03-0.9l-0.34-1.92l-5.4,0.97l-0.39-2.19l8.06-1.44l1.83,10.2l-7.93,1.42l-0.39-2.2
		l5.27-0.94l-0.3-1.69L184.18,283.17z"/>
	<path class="st0" d="M182.34,287.43l-5.79,0.53c-0.45,0.04-0.88,0.02-1.28-0.06s-0.76-0.24-1.07-0.46s-0.56-0.52-0.76-0.89
		c-0.2-0.37-0.32-0.82-0.37-1.35c-0.06-0.69,0-1.26,0.2-1.71c0.19-0.45,0.51-0.82,0.94-1.12l-2.39-4.38l2.81-0.26l1.95,3.63
		l2.41-0.77l-0.3-3.24l2.69-0.25L182.34,287.43z M175.75,284.89c0.02,0.24,0.12,0.44,0.3,0.61s0.4,0.23,0.67,0.21l2.73-0.25
		l-0.23-2.5l-2.42,0.68c-0.43,0.12-0.72,0.29-0.87,0.51C175.78,284.37,175.72,284.62,175.75,284.89z"/>
	<path class="st0" d="M166.42,281.45c-0.45-0.4-0.98-0.73-1.59-0.99c-0.61-0.26-1.24-0.39-1.89-0.39c-0.43,0-0.75,0.06-0.95,0.17
		c-0.2,0.12-0.31,0.3-0.31,0.54c-0.01,0.29,0.1,0.52,0.33,0.7s0.61,0.35,1.14,0.51c0.46,0.14,0.92,0.29,1.41,0.46
		c0.48,0.16,0.92,0.38,1.31,0.63c0.39,0.26,0.71,0.59,0.96,0.98c0.25,0.4,0.36,0.9,0.35,1.52c-0.01,0.55-0.13,1.01-0.35,1.4
		c-0.22,0.39-0.52,0.71-0.89,0.95s-0.81,0.43-1.3,0.54c-0.49,0.11-1.01,0.16-1.56,0.15c-0.38-0.01-0.74-0.04-1.08-0.1
		s-0.68-0.15-1.01-0.26s-0.66-0.26-0.98-0.43s-0.65-0.38-0.99-0.62l1.11-2.05c0.41,0.33,0.86,0.59,1.36,0.79s1.02,0.3,1.58,0.33
		c0.18,0.01,0.35,0.01,0.51-0.01c0.16-0.02,0.3-0.05,0.42-0.11c0.12-0.05,0.22-0.12,0.3-0.21c0.08-0.08,0.12-0.19,0.12-0.32
		s-0.01-0.25-0.05-0.35c-0.04-0.1-0.11-0.2-0.22-0.29s-0.27-0.18-0.48-0.27c-0.21-0.09-0.49-0.19-0.84-0.29
		c-0.55-0.17-1.07-0.34-1.55-0.52c-0.49-0.18-0.91-0.4-1.27-0.67c-0.36-0.26-0.64-0.59-0.84-0.97c-0.2-0.39-0.29-0.87-0.28-1.45
		c0.01-0.54,0.13-1,0.34-1.4s0.52-0.72,0.89-0.97c0.38-0.25,0.82-0.44,1.34-0.55c0.51-0.12,1.07-0.17,1.68-0.16
		c0.87,0.02,1.67,0.17,2.42,0.45c0.74,0.28,1.43,0.65,2.06,1.13L166.42,281.45z"/>
	<path class="st0" d="M153.02,277.06c0.64,0.07,1.22,0.24,1.76,0.5c0.53,0.26,0.99,0.59,1.37,1s0.67,0.88,0.85,1.42
		s0.24,1.13,0.17,1.77l-0.7,6.38l-2.69-0.3l0.69-6.25c0.03-0.28,0.02-0.54-0.04-0.79s-0.16-0.48-0.3-0.67
		c-0.14-0.2-0.33-0.37-0.56-0.5s-0.49-0.22-0.8-0.25c-0.3-0.03-0.58-0.01-0.83,0.07s-0.47,0.2-0.66,0.37
		c-0.19,0.16-0.34,0.36-0.45,0.59s-0.18,0.49-0.21,0.76l-0.69,6.25l-2.69-0.3l0.7-6.38c0.07-0.64,0.26-1.2,0.56-1.68
		c0.3-0.49,0.68-0.89,1.14-1.2c0.46-0.32,0.98-0.54,1.57-0.68S152.4,276.99,153.02,277.06z"/>
	<path class="st0" d="M136.43,282.21c0.09-0.46,0.26-0.86,0.51-1.2c0.24-0.34,0.58-0.61,1-0.81c-0.19-0.13-0.37-0.28-0.52-0.45
		c-0.15-0.17-0.28-0.37-0.38-0.6c-0.1-0.22-0.16-0.48-0.19-0.76s-0.01-0.58,0.06-0.92c0.1-0.51,0.27-0.93,0.5-1.25
		c0.23-0.33,0.5-0.58,0.81-0.75s0.66-0.28,1.04-0.3c0.38-0.03,0.77,0,1.18,0.08l6.39,1.31l-2.08,10.15l-5.91-1.21
		c-0.41-0.08-0.78-0.21-1.12-0.37s-0.62-0.38-0.84-0.64c-0.22-0.27-0.38-0.59-0.46-0.96C136.32,283.16,136.33,282.72,136.43,282.21z
		 M140.09,281.9c-0.3,0.01-0.54,0.08-0.72,0.22c-0.18,0.14-0.29,0.31-0.33,0.52c-0.04,0.22,0.01,0.4,0.17,0.55s0.34,0.24,0.56,0.29
		l2.81,0.58l0.46-2.27L140.09,281.9z M139.52,278.42c-0.03,0.17-0.03,0.33,0.02,0.48s0.13,0.28,0.23,0.39
		c0.1,0.11,0.23,0.21,0.37,0.29c0.14,0.08,0.29,0.15,0.45,0.21l2.9-0.19l0.3-1.46l-2.75-0.56c-0.37-0.08-0.7-0.06-0.98,0.06
		C139.78,277.77,139.6,278.02,139.52,278.42z"/>
	<path class="st0" d="M131.56,283.76l0.52-6.12l-2.98,5.35l-2.52-0.79l0.69-6.17l-3.15,5.41l-2.57-0.8l5.6-9.11l2.57,0.8l-0.72,6.62
		l3.15-5.87l2.56,0.8l-0.58,10.67L131.56,283.76z"/>
	<path class="st0" d="M125.23,270.89l-7.26,8.19l-3.14-1.32l0.79-10.91l2.49,1.05l-0.21,3.05l3.45,0.45l1.39-1.56L125.23,270.89z
		 M119.63,273.34l-1.87-0.24l-0.19,2.56L119.63,273.34z"/>
	<path class="st0" d="M108.85,274.95l-0.22-3.97l-3.38,2.1l-2.64-1.37l6.04-3.66l2-3.84l2.4,1.25l-2.02,3.87l0.46,7L108.85,274.95z"
		/>
	<path class="st0" d="M89.03,253.8c-0.09-0.6-0.29-1.19-0.59-1.78c-0.3-0.59-0.7-1.09-1.2-1.51c-0.33-0.28-0.61-0.44-0.84-0.48
		c-0.23-0.04-0.42,0.03-0.58,0.21c-0.19,0.22-0.25,0.46-0.19,0.75c0.06,0.28,0.24,0.66,0.55,1.12c0.26,0.4,0.52,0.82,0.79,1.25
		c0.27,0.43,0.47,0.88,0.6,1.33c0.14,0.45,0.17,0.91,0.11,1.37c-0.06,0.46-0.3,0.92-0.7,1.39c-0.36,0.41-0.75,0.7-1.17,0.85
		c-0.42,0.16-0.85,0.21-1.3,0.16s-0.89-0.19-1.34-0.42s-0.88-0.52-1.29-0.88c-0.29-0.25-0.54-0.51-0.77-0.77
		c-0.22-0.26-0.43-0.55-0.61-0.85s-0.34-0.62-0.48-0.96c-0.14-0.34-0.26-0.71-0.37-1.11l2.17-0.87c0.1,0.51,0.28,1.01,0.54,1.47
		c0.26,0.47,0.59,0.89,1,1.27c0.13,0.13,0.27,0.23,0.4,0.32c0.14,0.09,0.27,0.15,0.4,0.19s0.25,0.05,0.36,0.03s0.21-0.07,0.3-0.17
		s0.15-0.2,0.18-0.3s0.04-0.22,0.01-0.36s-0.09-0.31-0.2-0.52s-0.26-0.46-0.46-0.77c-0.32-0.48-0.6-0.95-0.86-1.4
		s-0.44-0.89-0.55-1.32c-0.11-0.43-0.11-0.86-0.02-1.28c0.09-0.42,0.33-0.86,0.71-1.29c0.35-0.41,0.74-0.69,1.16-0.85
		c0.42-0.16,0.85-0.22,1.31-0.17s0.91,0.19,1.38,0.43s0.94,0.56,1.39,0.96c0.65,0.57,1.18,1.2,1.57,1.89s0.68,1.42,0.86,2.18
		L89.03,253.8z"/>
	<path class="st0" d="M74.55,244.22l1.6-1.56l3.57,3.66l1.4-1.36l-3.83-3.93l1.59-1.55l5.71,5.87l-7.42,7.23l-5.62-5.77l1.6-1.56
		l3.74,3.84l1.23-1.2L74.55,244.22z"/>
	<path class="st0" d="M78.39,239.01l-10.24,3.86L66,240.23l5.79-9.28l1.71,2.09l-1.62,2.6l2.84,2.01l1.96-0.73L78.39,239.01z
		 M72.3,238.56l-1.55-1.09l-1.36,2.17L72.3,238.56z"/>
	<path class="st0" d="M62.68,236l-3.27-4.81c-0.25-0.37-0.44-0.76-0.56-1.15c-0.12-0.39-0.16-0.78-0.12-1.15
		c0.04-0.38,0.18-0.74,0.41-1.1c0.23-0.35,0.56-0.68,1-0.98c0.57-0.39,1.1-0.61,1.59-0.66s0.97,0.04,1.44,0.28l2.67-4.21l1.59,2.33
		l-2.23,3.47l1.84,1.74l2.69-1.83l1.52,2.24L62.68,236z M61.72,229.01c-0.2,0.14-0.33,0.32-0.39,0.55
		c-0.06,0.23-0.01,0.46,0.14,0.68l1.54,2.27l2.08-1.41l-1.76-1.79c-0.31-0.32-0.6-0.49-0.87-0.51
		C62.19,228.78,61.95,228.85,61.72,229.01z"/>
	<path class="st0" d="M60.96,224.17c-0.7,0.39-1.41,0.61-2.13,0.68c-0.72,0.07-1.42,0-2.09-0.21s-1.28-0.56-1.85-1.03
		c-0.57-0.48-1.05-1.07-1.43-1.76c-0.52-0.94-0.78-1.86-0.77-2.75s0.23-1.82,0.68-2.78l2.17,0.84c-0.35,0.56-0.55,1.13-0.61,1.72
		s0.09,1.21,0.44,1.84c0.22,0.39,0.49,0.72,0.81,0.96c0.32,0.25,0.68,0.42,1.06,0.51s0.78,0.11,1.2,0.04
		c0.42-0.06,0.82-0.2,1.22-0.42s0.73-0.48,1-0.8s0.47-0.66,0.6-1.03c0.12-0.38,0.17-0.77,0.13-1.18c-0.04-0.41-0.17-0.82-0.39-1.22
		c-0.18-0.33-0.38-0.6-0.6-0.82s-0.46-0.4-0.73-0.54c-0.26-0.14-0.55-0.24-0.85-0.3s-0.63-0.1-0.97-0.11l0.51-2.27
		c1.01,0.12,1.9,0.41,2.67,0.88s1.43,1.19,1.96,2.16c0.38,0.7,0.63,1.42,0.73,2.15c0.1,0.74,0.06,1.44-0.12,2.12
		s-0.49,1.3-0.93,1.88C62.23,223.31,61.66,223.79,60.96,224.17z"/>
	<path class="st0" d="M57.39,205.5l-4.45,1.93l2.53,3.14l3.47-1.51l1.08,2.48l-9.5,4.13l-1.08-2.48l3.99-1.73l-2.54-3.14l-3,1.3
		l-1.08-2.48l9.5-4.13L57.39,205.5z"/>
	<path class="st0" d="M46.18,192.5l2.14-0.65l1.48,4.89l3.99-1.21l0.78,2.59l-9.92,3l-2.33-7.71l2.14-0.65l1.55,5.13l1.64-0.5
		L46.18,192.5z"/>
	<path class="st0" d="M46.93,190.82c-0.77,0.16-1.51,0.16-2.23,0.01c-0.71-0.15-1.35-0.43-1.93-0.83c-0.57-0.4-1.06-0.91-1.46-1.54
		c-0.4-0.62-0.69-1.34-0.85-2.13c-0.17-0.81-0.19-1.58-0.06-2.31c0.12-0.73,0.37-1.4,0.74-1.99c0.37-0.59,0.85-1.09,1.45-1.5
		c0.6-0.41,1.28-0.69,2.05-0.85c0.78-0.16,1.53-0.17,2.24-0.03c0.71,0.14,1.35,0.41,1.93,0.81s1.07,0.91,1.47,1.54
		c0.4,0.62,0.69,1.34,0.85,2.15c0.16,0.8,0.18,1.56,0.06,2.3c-0.12,0.73-0.37,1.4-0.75,1.99c-0.37,0.59-0.86,1.1-1.45,1.52
		C48.4,190.37,47.71,190.66,46.93,190.82z M46.39,188.17c0.47-0.1,0.88-0.25,1.24-0.47s0.65-0.48,0.88-0.8
		c0.23-0.31,0.38-0.66,0.47-1.06c0.08-0.39,0.08-0.81-0.01-1.25s-0.25-0.83-0.48-1.16s-0.51-0.59-0.84-0.79s-0.71-0.33-1.12-0.39
		c-0.42-0.06-0.86-0.04-1.32,0.05c-0.45,0.09-0.85,0.25-1.21,0.46c-0.35,0.22-0.64,0.48-0.87,0.8c-0.23,0.31-0.38,0.66-0.47,1.06
		c-0.08,0.39-0.08,0.81,0.01,1.25s0.25,0.83,0.48,1.16s0.51,0.59,0.84,0.79s0.7,0.33,1.11,0.39
		C45.51,188.28,45.94,188.26,46.39,188.17z"/>
	<path class="st0" d="M39.3,178.44l-0.61-5.78c-0.05-0.45-0.03-0.88,0.05-1.28c0.08-0.41,0.23-0.76,0.44-1.07
		c0.22-0.31,0.51-0.57,0.88-0.77s0.82-0.33,1.34-0.39c0.69-0.07,1.26-0.01,1.71,0.17c0.45,0.19,0.83,0.5,1.14,0.93l4.35-2.44
		l0.29,2.81l-3.61,2l0.8,2.4l3.23-0.34l0.28,2.69L39.3,178.44z M41.76,171.82c-0.24,0.03-0.44,0.13-0.6,0.3
		c-0.16,0.18-0.23,0.4-0.2,0.67l0.29,2.73l2.5-0.26l-0.71-2.41c-0.12-0.43-0.3-0.72-0.52-0.86
		C42.28,171.85,42.03,171.79,41.76,171.82z"/>
	<path class="st0" d="M40.96,154.12c0.47,0.01,0.89,0.1,1.28,0.27c0.38,0.17,0.71,0.45,0.98,0.83c0.09-0.21,0.21-0.41,0.35-0.6
		c0.14-0.18,0.31-0.35,0.52-0.49c0.2-0.14,0.44-0.25,0.71-0.33s0.57-0.11,0.91-0.11c0.52,0.01,0.96,0.09,1.32,0.25
		s0.66,0.38,0.89,0.66s0.39,0.6,0.49,0.96c0.1,0.37,0.14,0.76,0.14,1.17l-0.11,6.53l-10.36-0.17l0.1-6.03
		c0.01-0.42,0.06-0.8,0.16-1.17c0.1-0.36,0.26-0.68,0.48-0.95s0.51-0.48,0.86-0.63S40.44,154.12,40.96,154.12z M41.95,157.66
		c-0.06-0.29-0.18-0.52-0.35-0.67s-0.36-0.23-0.57-0.23c-0.23,0-0.4,0.08-0.51,0.26c-0.12,0.18-0.18,0.38-0.18,0.61l-0.05,2.87
		l2.31,0.04L41.95,157.66z M45.26,156.46c-0.17,0-0.33,0.03-0.46,0.11c-0.14,0.08-0.25,0.18-0.34,0.3
		c-0.09,0.12-0.17,0.26-0.22,0.42s-0.1,0.32-0.12,0.48l0.72,2.82l1.49,0.02l0.05-2.81c0.01-0.38-0.08-0.7-0.24-0.95
		C45.95,156.59,45.66,156.46,45.26,156.46z"/>
	<path class="st0" d="M43.12,144l2.22,0.23l-0.52,5.08l1.94,0.2l0.56-5.46l2.21,0.22l-0.83,8.15l-10.31-1.05l0.82-8.02l2.22,0.23
		l-0.54,5.33l1.71,0.17L43.12,144z"/>
	<path class="st0" d="M42.74,136.09l7.99,1.49l-0.49,2.66l-7.99-1.49l-0.6,3.23l-2.2-0.41l1.7-9.13l2.2,0.41L42.74,136.09z"/>
	<path class="st0" d="M45.27,125.62l7.83,2.17l-0.72,2.61l-7.83-2.17l-0.88,3.17l-2.15-0.6l2.48-8.95l2.16,0.6L45.27,125.62z"/>
	<path class="st0" d="M51.03,114.06l2.1,0.77l-1.77,4.79l1.83,0.67l1.9-5.15l2.09,0.77l-2.83,7.68l-9.72-3.58l2.79-7.56l2.1,0.77
		l-1.85,5.03l1.61,0.59L51.03,114.06z"/>
	<path class="st0" d="M48.3,110.27l2.47-5.26c0.19-0.41,0.43-0.76,0.7-1.07c0.28-0.3,0.59-0.53,0.93-0.69
		c0.35-0.15,0.73-0.22,1.15-0.21c0.42,0.02,0.87,0.14,1.35,0.36c0.63,0.29,1.09,0.64,1.37,1.03c0.29,0.39,0.45,0.85,0.49,1.38
		l4.98,0.16l-1.2,2.55l-4.12-0.16l-0.56,2.47l2.94,1.38l-1.15,2.45L48.3,110.27z M53.83,105.88c-0.22-0.1-0.44-0.12-0.67-0.05
		s-0.4,0.23-0.51,0.47l-1.17,2.48l2.27,1.07l0.64-2.43c0.12-0.43,0.12-0.77,0-1.01C54.26,106.17,54.08,105.99,53.83,105.88z"/>
	<path class="st0" d="M61.52,99.59c0.57-0.18,1.13-0.47,1.66-0.87s0.96-0.87,1.3-1.43c0.22-0.37,0.33-0.67,0.33-0.91
		c0-0.23-0.1-0.41-0.31-0.54c-0.24-0.15-0.5-0.17-0.77-0.07s-0.61,0.34-1.02,0.72c-0.35,0.32-0.72,0.65-1.11,0.98
		s-0.79,0.6-1.21,0.81s-0.87,0.31-1.33,0.33c-0.47,0.01-0.96-0.15-1.48-0.47c-0.46-0.29-0.81-0.63-1.03-1.01
		c-0.22-0.39-0.35-0.81-0.37-1.25c-0.02-0.45,0.04-0.91,0.2-1.39c0.16-0.48,0.38-0.95,0.67-1.42c0.2-0.32,0.41-0.62,0.64-0.88
		c0.22-0.26,0.47-0.51,0.74-0.73c0.27-0.23,0.56-0.43,0.87-0.62s0.66-0.37,1.04-0.54l1.2,2c-0.49,0.18-0.95,0.44-1.37,0.77
		c-0.42,0.33-0.78,0.73-1.09,1.19c-0.1,0.15-0.19,0.3-0.25,0.45c-0.07,0.15-0.11,0.29-0.12,0.42s-0.01,0.25,0.03,0.36
		c0.03,0.11,0.11,0.2,0.22,0.27s0.22,0.11,0.32,0.13s0.22,0,0.36-0.04c0.13-0.05,0.29-0.14,0.48-0.28s0.41-0.33,0.68-0.58
		c0.42-0.39,0.84-0.75,1.24-1.07c0.4-0.33,0.81-0.58,1.22-0.75s0.83-0.25,1.26-0.22s0.9,0.19,1.39,0.5c0.46,0.28,0.8,0.62,1.03,1.01
		s0.36,0.81,0.38,1.26c0.02,0.45-0.04,0.93-0.2,1.44c-0.16,0.5-0.4,1.01-0.72,1.53c-0.46,0.74-0.99,1.35-1.61,1.85
		s-1.29,0.9-2.02,1.2L61.52,99.59z"/>
	<path class="st0" d="M72.11,90.29c-0.38,0.51-0.82,0.93-1.32,1.26c-0.49,0.33-1.02,0.55-1.56,0.67s-1.1,0.12-1.66,0.01
		s-1.09-0.37-1.61-0.75l-5.14-3.85l1.62-2.16l5.04,3.77c0.22,0.17,0.46,0.29,0.7,0.36s0.49,0.1,0.74,0.08
		c0.24-0.02,0.48-0.1,0.71-0.23c0.23-0.13,0.44-0.31,0.62-0.56c0.18-0.24,0.3-0.49,0.36-0.75s0.07-0.51,0.02-0.75
		c-0.04-0.25-0.14-0.47-0.28-0.69s-0.32-0.41-0.55-0.57l-5.04-3.77l1.62-2.16l5.14,3.85c0.51,0.38,0.9,0.83,1.17,1.34
		c0.26,0.51,0.42,1.04,0.46,1.59c0.04,0.55-0.03,1.12-0.21,1.69C72.77,89.24,72.49,89.78,72.11,90.29z"/>
	<path class="st0" d="M76.1,73.39c0.35,0.31,0.61,0.66,0.78,1.05c0.17,0.38,0.24,0.81,0.19,1.27c0.21-0.1,0.43-0.18,0.66-0.22
		s0.46-0.05,0.71-0.03c0.24,0.03,0.49,0.1,0.75,0.22c0.25,0.12,0.51,0.29,0.76,0.52c0.39,0.35,0.66,0.7,0.83,1.06
		s0.24,0.72,0.23,1.08c-0.01,0.36-0.1,0.71-0.26,1.05c-0.17,0.34-0.39,0.66-0.67,0.97L75.7,85.2L68,78.25l4.04-4.47
		c0.28-0.31,0.57-0.57,0.89-0.78s0.64-0.34,0.98-0.4c0.34-0.06,0.7-0.03,1.06,0.09C75.34,72.81,75.71,73.04,76.1,73.39z M74.51,76.7
		c0.15-0.26,0.2-0.51,0.17-0.74s-0.12-0.41-0.28-0.55c-0.17-0.15-0.35-0.2-0.56-0.14s-0.38,0.17-0.53,0.34l-1.93,2.13l1.72,1.55
		L74.51,76.7z M77.79,77.97c-0.13-0.12-0.27-0.19-0.42-0.22s-0.3-0.03-0.46,0c-0.15,0.03-0.3,0.09-0.44,0.17s-0.28,0.17-0.41,0.28
		l-1.31,2.6l1.11,1l1.88-2.08c0.26-0.28,0.4-0.58,0.44-0.88C78.23,78.53,78.09,78.24,77.79,77.97z"/>
	<path class="st0" d="M77.24,68.39l5.01,3.55l-3.1-5.28l1.96-1.77l4.97,3.72l-3.06-5.45l1.99-1.81l5.01,9.44l-1.99,1.81l-5.35-3.98
		l3.46,5.69l-1.98,1.8l-8.9-5.91L77.24,68.39z"/>
	<path class="st0" d="M91.56,69.45l-3.39-10.4l2.73-2.04l9.01,6.2l-2.17,1.62l-2.53-1.73l-2.13,2.75l0.64,1.99L91.56,69.45z
		 M92.28,63.38l1.15-1.5l-2.11-1.46L92.28,63.38z"/>
	<path class="st0" d="M96.3,53.29l3.54,1.81l-0.1-3.97l2.52-1.58l0.11,7.06l2.3,3.67l-2.29,1.44l-2.33-3.7l-6.27-3.13L96.3,53.29z"
		/>
</g>
</svg>
